<svg xmlns="http://www.w3.org/2000/svg" xmlns:xlink="http://www.w3.org/1999/xlink" width="500" zoomAndPan="magnify" viewBox="0 0 375 374.999991" height="500" preserveAspectRatio="xMidYMid meet" version="1.0"><defs><g/><clipPath id="id1"><path d="M 108.28125 81.402344 L 266.53125 81.402344 L 266.53125 239.652344 L 108.28125 239.652344 Z M 108.28125 81.402344 " clip-rule="nonzero"/></clipPath></defs><rect x="-37.5" width="450" fill="#ffffff" y="-37.499999" height="449.999989" fill-opacity="1"/><rect x="-37.5" width="450" fill="#ffffff" y="-37.499999" height="449.999989" fill-opacity="1"/><rect x="-37.5" width="450" fill="#ffffff" y="-37.499999" height="449.999989" fill-opacity="1"/><rect x="-37.5" width="450" fill="#ffffff" y="-37.499999" height="449.999989" fill-opacity="1"/><g clip-path="url(#id1)"><path fill="#bffff9" d="M 187.40625 81.402344 C 143.707031 81.402344 108.28125 116.828125 108.28125 160.527344 C 108.28125 204.226562 143.707031 239.652344 187.40625 239.652344 C 231.105469 239.652344 266.53125 204.226562 266.53125 160.527344 C 266.53125 116.828125 231.105469 81.402344 187.40625 81.402344 " fill-opacity="1" fill-rule="nonzero"/></g><g fill="#274352" fill-opacity="1"><g transform="translate(87.39592, 199.294756)"><g><path d="M 20.078125 -31.75 C 21.753906 -39.164062 23.320312 -44.96875 24.78125 -49.15625 C 26.25 -53.34375 28.445312 -55.703125 31.375 -56.234375 L 31.984375 -56.359375 C 32.234375 -56.398438 32.878906 -56.382812 33.921875 -56.3125 C 31.992188 -41.363281 29.476562 -29.785156 26.375 -21.578125 C 23.269531 -13.367188 18.894531 -6.710938 13.25 -1.609375 C 7.613281 3.484375 3.3125 6.265625 0.34375 6.734375 C -1.601562 7.304688 -3.335938 7.097656 -4.859375 6.109375 C -6.390625 5.128906 -5.53125 3.890625 -2.28125 2.390625 C 6.550781 -2.679688 12.238281 -9.707031 14.78125 -18.6875 C 14.820312 -18.789062 14.863281 -18.894531 14.90625 -19 C 10.21875 -27.757812 6.421875 -33.828125 3.515625 -37.203125 C 0.609375 -40.585938 -1.519531 -41.992188 -2.875 -41.421875 C -4.238281 -40.847656 -5.265625 -40.207031 -5.953125 -39.5 C -6.640625 -38.800781 -7.023438 -38.769531 -7.109375 -39.40625 C -7.203125 -40.050781 -7.003906 -40.695312 -6.515625 -41.34375 C -6.035156 -42 -5.113281 -42.757812 -3.75 -43.625 C -2.382812 -44.488281 -0.566406 -44.585938 1.703125 -43.921875 C 3.984375 -43.253906 6.445312 -41.546875 9.09375 -38.796875 C 11.75 -36.046875 15.070312 -32.289062 19.0625 -27.53125 Z M 20.078125 -31.75 "/></g></g></g><g fill="#274352" fill-opacity="1"><g transform="translate(124.116344, 192.618728)"><g><path d="M 25.828125 -27.109375 C 24.523438 -32.015625 22.78125 -37.441406 20.59375 -43.390625 C 19.082031 -36.828125 17.566406 -30.878906 16.046875 -25.546875 C 21.390625 -26.140625 24.648438 -26.660156 25.828125 -27.109375 Z M 13.671875 -17.5 C 12.671875 -14.375 11.671875 -11.5 10.671875 -8.875 C 7.359375 -0.289062 2.984375 4.460938 -2.453125 5.390625 L -2.5 5.25 C -0.394531 0.675781 1.582031 -4.453125 3.4375 -10.140625 C 3.96875 -12.054688 4.5625 -14.28125 5.21875 -16.8125 C 0.75 -16.632812 -2.304688 -17.390625 -3.953125 -19.078125 C -5.609375 -20.765625 -6.414062 -22.28125 -6.375 -23.625 C -6.34375 -24.976562 -5.660156 -25.363281 -4.328125 -24.78125 C -3.003906 -24.195312 -1.460938 -23.882812 0.296875 -23.84375 C 2.066406 -23.800781 4.332031 -24.070312 7.09375 -24.65625 C 8.125 -29.019531 9.207031 -33.972656 10.34375 -39.515625 C 10.738281 -43.703125 12.304688 -46.742188 15.046875 -48.640625 C 17.785156 -50.535156 20.773438 -50.75 24.015625 -49.28125 C 25.890625 -48.582031 27.375 -47.226562 28.46875 -45.21875 L 29.578125 -42.8125 C 33.472656 -32.675781 35.632812 -25.113281 36.0625 -20.125 C 37.195312 -9.351562 37.285156 -3.289062 36.328125 -1.9375 C 35.367188 -0.59375 34.304688 -0.613281 33.140625 -2 C 31.984375 -3.382812 30.28125 -8.410156 28.03125 -17.078125 C 27.84375 -18.242188 27.625 -19.460938 27.375 -20.734375 L 26.875 -20.453125 C 24.695312 -19.222656 20.296875 -18.238281 13.671875 -17.5 Z M 13.671875 -17.5 "/></g></g></g><g fill="#274352" fill-opacity="1"><g transform="translate(166.539285, 184.905943)"><g><path d="M 23.28125 -47.28125 C 25.6875 -45.40625 27.367188 -43.050781 28.328125 -40.21875 C 29.285156 -37.382812 29.769531 -33.503906 29.78125 -28.578125 C 29.789062 -23.660156 28.273438 -19.070312 25.234375 -14.8125 C 22.191406 -10.550781 19.570312 -7.8125 17.375 -6.59375 C 15.175781 -5.375 13.367188 -4.640625 11.953125 -4.390625 C 5.140625 -2.847656 0.335938 -7.5 -2.453125 -18.34375 C -4.398438 -29.082031 -1.914062 -37.898438 5 -44.796875 C 7 -46.421875 9.945312 -47.707031 13.84375 -48.65625 C 17.738281 -49.613281 20.882812 -49.15625 23.28125 -47.28125 Z M 5.859375 -15.453125 C 7.210938 -11.390625 8.976562 -9.5625 11.15625 -9.96875 C 13.34375 -10.375 15.414062 -11.585938 17.375 -13.609375 C 19.332031 -15.640625 21.023438 -17.953125 22.453125 -20.546875 C 23.890625 -23.148438 24.164062 -26.875 23.28125 -31.71875 L 23.171875 -32.34375 C 22.304688 -37.113281 21.078125 -40.082031 19.484375 -41.25 C 17.898438 -42.414062 16.457031 -42.878906 15.15625 -42.640625 C 10.957031 -41.878906 8.285156 -40.335938 7.140625 -38.015625 C 5.992188 -35.703125 5.15625 -32.378906 4.625 -28.046875 C 4.101562 -23.710938 4.515625 -19.515625 5.859375 -15.453125 Z M 5.859375 -15.453125 "/></g></g></g><g fill="#274352" fill-opacity="1"><g transform="translate(205.24693, 177.868624)"><g><path d="M 38.15625 -45.78125 C 36.9375 -43.414062 34.539062 -42.804688 30.96875 -43.953125 C 27.40625 -45.109375 23.804688 -45.351562 20.171875 -44.6875 C 16.535156 -44.03125 14.140625 -42.648438 12.984375 -40.546875 C 11.828125 -38.441406 15.25 -36.347656 23.25 -34.265625 C 31.257812 -32.191406 35.757812 -28.242188 36.75 -22.421875 C 37.75 -16.597656 33.757812 -10.90625 24.78125 -5.34375 C 15.8125 0.207031 9.296875 2.863281 5.234375 2.625 C 1.179688 2.382812 -0.960938 1.097656 -1.203125 -1.234375 C -1.453125 -3.578125 -1.296875 -5.09375 -0.734375 -5.78125 C -0.179688 -6.476562 1.367188 -6.707031 3.921875 -6.46875 C 6.484375 -6.226562 10.640625 -7.1875 16.390625 -9.34375 C 22.148438 -11.507812 25.832031 -13.738281 27.4375 -16.03125 C 29.039062 -18.332031 28.457031 -20.207031 25.6875 -21.65625 C 22.925781 -23.101562 18.34375 -24.835938 11.9375 -26.859375 C 5.53125 -28.878906 2.132812 -32.347656 1.75 -37.265625 C 1.375 -42.191406 5.222656 -46.328125 13.296875 -49.671875 C 21.367188 -53.023438 27.832031 -53.804688 32.6875 -52.015625 C 37.550781 -50.222656 39.375 -48.144531 38.15625 -45.78125 Z M 38.15625 -45.78125 "/></g></g></g><g fill="#274352" fill-opacity="1"><g transform="translate(247.180229, 170.244859)"><g><path d="M 29.453125 -13.953125 C 27.859375 -10.492188 25.320312 -7.882812 21.84375 -6.125 C 18.375 -4.363281 14.570312 -3.804688 10.4375 -4.453125 C 6.3125 -5.109375 3.140625 -7.140625 0.921875 -10.546875 C -1.285156 -13.960938 -2.503906 -17.597656 -2.734375 -21.453125 L -2.671875 -24.640625 C -1.867188 -29.453125 0.238281 -34.628906 3.65625 -40.171875 C 3.894531 -40.222656 4.816406 -41.21875 6.421875 -43.15625 C 8.546875 -45.695312 12.6875 -48.054688 18.84375 -50.234375 C 19.570312 -50.503906 20.488281 -50.742188 21.59375 -50.953125 C 27.25 -51.078125 30.023438 -49.222656 29.921875 -45.390625 C 28.617188 -42.835938 26.800781 -42.046875 24.46875 -43.015625 C 22.132812 -43.992188 19.207031 -43.535156 15.6875 -41.640625 C 12.164062 -39.742188 9.765625 -36.195312 8.484375 -31 C 7.203125 -25.800781 6.832031 -21.65625 7.375 -18.5625 C 7.976562 -16.238281 8.929688 -14.367188 10.234375 -12.953125 C 12.378906 -11.515625 15.378906 -11.160156 19.234375 -11.890625 C 22.523438 -12.515625 24.863281 -14.03125 26.25 -16.4375 C 27.644531 -18.851562 28.410156 -20.914062 28.546875 -22.625 C 28.691406 -24.332031 28.613281 -25.910156 28.3125 -27.359375 C 28.007812 -28.804688 27.753906 -30.019531 27.546875 -31 C 27.335938 -31.988281 27.171875 -32.960938 27.046875 -33.921875 C 26.921875 -34.890625 28.175781 -35.15625 30.8125 -34.71875 C 33.445312 -34.289062 35.203125 -32.273438 36.078125 -28.671875 C 36.960938 -25.066406 36.96875 -19.273438 36.09375 -11.296875 C 35.226562 -3.328125 33.828125 1.71875 31.890625 3.84375 C 29.960938 5.96875 28.941406 6.492188 28.828125 5.421875 C 28.722656 4.347656 28.695312 1.425781 28.75 -3.34375 C 28.800781 -8.125 29.035156 -11.660156 29.453125 -13.953125 Z M 29.453125 -13.953125 "/></g></g></g><g fill="#274352" fill-opacity="1"><g transform="translate(108.742741, 285.35978)"><g/></g></g><g fill="#274352" fill-opacity="1"><g transform="translate(120.327458, 285.35978)"><g><path d="M 0.960938 -0.339844 C 0.859375 -0.199219 0.738281 -0.0585938 0.761719 0.101562 C 0.761719 0.398438 1.058594 0.558594 1.300781 0.539062 L 1.480469 0.539062 C 1.71875 0.558594 1.898438 0.359375 2.039062 0.140625 L 4.660156 -3.660156 L 7.261719 0.140625 C 7.398438 0.359375 7.578125 0.558594 7.820312 0.539062 L 8 0.539062 C 8.238281 0.558594 8.539062 0.398438 8.539062 0.101562 C 8.558594 -0.0585938 8.417969 -0.179688 8.339844 -0.339844 L 5.359375 -4.71875 L 8.300781 -9.019531 C 8.378906 -9.160156 8.5 -9.300781 8.5 -9.480469 C 8.5 -9.78125 8.199219 -9.941406 7.980469 -9.917969 L 7.800781 -9.917969 C 7.539062 -9.941406 7.359375 -9.738281 7.21875 -9.519531 L 4.640625 -5.761719 L 2.101562 -9.519531 C 1.941406 -9.738281 1.761719 -9.941406 1.5 -9.917969 L 1.320312 -9.917969 C 1.101562 -9.941406 0.800781 -9.78125 0.800781 -9.480469 C 0.800781 -9.300781 0.921875 -9.160156 1 -9.019531 L 3.941406 -4.71875 Z M 0.960938 -0.339844 "/></g></g></g><g fill="#274352" fill-opacity="1"><g transform="translate(135.62244, 285.35978)"><g><path d="M 0.519531 -6.761719 C 0.519531 -6.460938 0.660156 -6.140625 0.980469 -6.140625 L 7.140625 -6.140625 C 7.441406 -6.140625 7.578125 -6.460938 7.578125 -6.761719 C 7.578125 -7.058594 7.441406 -7.359375 7.140625 -7.359375 L 0.980469 -7.359375 C 0.679688 -7.359375 0.519531 -7.058594 0.519531 -6.761719 Z M 0.519531 -6.761719 "/></g></g></g><g fill="#274352" fill-opacity="1"><g transform="translate(149.73806, 285.35978)"><g><path d="M 5.5 -10.101562 C 4.121094 -10.199219 3.121094 -8.839844 2.800781 -7.480469 L 2.800781 -9.480469 C 2.800781 -9.800781 2.460938 -9.917969 2.21875 -9.917969 C 1.980469 -9.917969 1.621094 -9.820312 1.621094 -9.480469 L 1.621094 0.101562 C 1.621094 0.441406 1.980469 0.539062 2.21875 0.539062 C 2.460938 0.539062 2.820312 0.441406 2.820312 0.101562 L 2.820312 -4.558594 C 2.839844 -5.679688 3.019531 -6.820312 3.558594 -7.78125 C 3.941406 -8.480469 4.601562 -9 5.339844 -8.941406 C 5.917969 -9 6.417969 -8.699219 6.960938 -8.480469 C 7.078125 -8.417969 7.179688 -8.460938 7.28125 -8.578125 C 7.378906 -8.71875 7.417969 -8.898438 7.417969 -9.121094 C 7.417969 -9.460938 7.121094 -9.640625 6.878906 -9.78125 C 6.460938 -10 6 -10.101562 5.5 -10.101562 Z M 5.5 -10.101562 "/></g></g></g><g fill="#274352" fill-opacity="1"><g transform="translate(164.773187, 285.35978)"><g><path d="M 1.160156 -4.679688 C 1.140625 -3.238281 1.480469 -1.738281 2.421875 -0.699219 C 3.320312 0.320312 4.621094 0.71875 5.898438 0.699219 C 6.839844 0.679688 7.78125 0.5 8.578125 -0.0390625 C 8.800781 -0.179688 8.898438 -0.441406 8.839844 -0.699219 C 8.839844 -0.878906 8.800781 -1.039062 8.699219 -1.140625 C 8.640625 -1.320312 8.441406 -1.398438 8.28125 -1.300781 C 7.558594 -0.761719 6.738281 -0.320312 5.839844 -0.421875 C 4.898438 -0.421875 3.941406 -0.738281 3.28125 -1.519531 C 2.640625 -2.261719 2.460938 -3.300781 2.441406 -4.320312 L 8.5 -4.320312 C 8.761719 -4.320312 9.039062 -4.320312 9.261719 -4.539062 C 9.441406 -4.761719 9.441406 -5.078125 9.441406 -5.378906 C 9.441406 -6.601562 9.121094 -7.859375 8.378906 -8.761719 C 7.660156 -9.660156 6.558594 -10.101562 5.5 -10.078125 C 4.300781 -10.101562 3.101562 -9.640625 2.320312 -8.621094 C 1.460938 -7.519531 1.160156 -6.101562 1.160156 -4.679688 Z M 2.441406 -5.339844 C 2.5 -6.320312 2.71875 -7.320312 3.339844 -8.039062 C 3.878906 -8.699219 4.699219 -9.039062 5.5 -9.019531 C 6.28125 -9.039062 7.039062 -8.738281 7.519531 -8.039062 C 8.058594 -7.261719 8.261719 -6.28125 8.261719 -5.339844 Z M 2.441406 -5.339844 "/></g></g></g><g fill="#274352" fill-opacity="1"><g transform="translate(181.367476, 285.35978)"><g><path d="M 1.359375 -2.300781 C 1.261719 -0.539062 2.878906 0.800781 4.359375 0.699219 C 5.800781 0.699219 7.398438 -0.160156 7.878906 -1.761719 C 7.941406 -0.980469 8.058594 -0.21875 8.398438 0.421875 C 8.539062 0.519531 8.71875 0.519531 8.898438 0.460938 C 9.121094 0.398438 9.359375 0.21875 9.300781 -0.0195312 C 9.121094 -0.839844 8.917969 -1.660156 8.980469 -2.519531 L 8.980469 -5.820312 C 8.960938 -6.941406 8.878906 -8.160156 8.179688 -9.039062 C 7.519531 -9.898438 6.460938 -10.078125 5.5 -10.078125 C 4.519531 -10.058594 3.5 -9.839844 2.621094 -9.339844 C 2.398438 -9.199219 2.28125 -9 2.300781 -8.761719 C 2.300781 -8.578125 2.339844 -8.417969 2.398438 -8.300781 C 2.480469 -8.078125 2.71875 -8.019531 2.898438 -8.121094 C 3.71875 -8.519531 4.539062 -9.078125 5.480469 -9 C 6.101562 -9 6.800781 -8.839844 7.21875 -8.28125 C 7.679688 -7.578125 7.738281 -6.679688 7.761719 -5.859375 L 6.28125 -5.859375 C 5.019531 -5.839844 3.738281 -5.640625 2.679688 -4.921875 C 1.820312 -4.378906 1.300781 -3.359375 1.359375 -2.300781 Z M 2.539062 -2.359375 C 2.519531 -3.078125 2.878906 -3.800781 3.441406 -4.140625 C 4.261719 -4.679688 5.199219 -4.761719 6.140625 -4.820312 L 7.761719 -4.839844 L 7.761719 -4.019531 C 7.761719 -2.140625 6.300781 -0.320312 4.558594 -0.320312 C 3.539062 -0.261719 2.441406 -1.140625 2.539062 -2.359375 Z M 2.539062 -2.359375 "/></g></g></g><g fill="#274352" fill-opacity="1"><g transform="translate(198.021725, 285.35978)"><g><path d="M 2.578125 0.101562 C 2.578125 0.441406 2.921875 0.539062 3.160156 0.539062 C 3.421875 0.539062 3.800781 0.441406 3.800781 0.101562 L 3.800781 -13.78125 C 3.800781 -14.121094 3.421875 -14.21875 3.160156 -14.21875 C 2.921875 -14.21875 2.578125 -14.121094 2.578125 -13.78125 Z M 2.578125 0.101562 "/></g></g></g><g fill="#274352" fill-opacity="1"><g transform="translate(210.398286, 285.35978)"><g><path d="M 3.398438 -12.539062 C 3.878906 -12.480469 4.339844 -12.898438 4.28125 -13.441406 C 4.339844 -13.980469 3.878906 -14.378906 3.398438 -14.320312 C 2.941406 -14.378906 2.480469 -13.980469 2.539062 -13.441406 C 2.480469 -12.898438 2.921875 -12.480469 3.398438 -12.539062 Z M 2.800781 0.101562 C 2.800781 0.441406 3.179688 0.539062 3.421875 0.539062 C 3.660156 0.539062 4.039062 0.421875 4.039062 0.101562 L 4.039062 -9.339844 C 4.039062 -9.660156 3.660156 -9.800781 3.421875 -9.800781 C 3.160156 -9.800781 2.800781 -9.679688 2.800781 -9.339844 Z M 2.800781 0.101562 "/></g></g></g><g fill="#274352" fill-opacity="1"><g transform="translate(223.214604, 285.35978)"><g><path d="M 7.460938 -2.101562 C 7.480469 -2.800781 7.261719 -3.519531 6.800781 -4.019531 C 6.300781 -4.640625 5.621094 -5 4.921875 -5.261719 L 3.761719 -5.621094 C 3.039062 -5.78125 2.21875 -6.378906 2.320312 -7.28125 C 2.300781 -7.761719 2.5 -8.21875 2.878906 -8.519531 C 3.300781 -8.859375 3.820312 -8.980469 4.359375 -8.980469 C 5.140625 -8.980469 5.878906 -8.679688 6.578125 -8.21875 C 6.898438 -8 7.179688 -8.398438 7.160156 -8.738281 C 7.160156 -9.019531 7.058594 -9.21875 6.839844 -9.359375 C 6.121094 -9.917969 5.21875 -10.019531 4.359375 -10.078125 C 2.898438 -10.140625 1.058594 -9.179688 1.121094 -7.300781 C 1.058594 -6.601562 1.339844 -5.878906 1.820312 -5.417969 C 2.378906 -4.839844 3.160156 -4.621094 3.878906 -4.398438 C 4.519531 -4.179688 5.179688 -3.980469 5.71875 -3.5 C 6.101562 -3.179688 6.28125 -2.660156 6.261719 -2.121094 C 6.28125 -1.660156 6.101562 -1.199219 5.761719 -0.898438 C 5.300781 -0.519531 4.699219 -0.398438 4.140625 -0.378906 C 3.238281 -0.320312 2.421875 -0.800781 1.679688 -1.339844 C 1.519531 -1.441406 1.320312 -1.378906 1.261719 -1.199219 C 1.160156 -1.058594 1.121094 -0.898438 1.121094 -0.738281 C 1.078125 -0.441406 1.179688 -0.238281 1.421875 -0.101562 C 2.238281 0.441406 3.21875 0.699219 4.179688 0.699219 C 5.039062 0.699219 5.878906 0.519531 6.578125 -0.0195312 C 7.199219 -0.480469 7.480469 -1.300781 7.460938 -2.101562 Z M 7.460938 -2.101562 "/></g></g></g><g fill="#274352" fill-opacity="1"><g transform="translate(237.789982, 285.35978)"><g><path d="M 1.921875 0.101562 C 1.921875 0.441406 2.320312 0.539062 2.558594 0.539062 C 2.800781 0.539062 3.160156 0.441406 3.160156 0.101562 L 3.160156 -5.28125 C 3.160156 -6.179688 3.441406 -7.078125 3.980469 -7.78125 C 4.441406 -8.398438 5.058594 -8.917969 5.800781 -8.917969 C 6.417969 -8.941406 7.039062 -8.640625 7.339844 -8.058594 C 7.761719 -7.28125 7.820312 -6.359375 7.820312 -5.5 L 7.820312 0.101562 C 7.820312 0.441406 8.199219 0.539062 8.441406 0.539062 C 8.679688 0.539062 9.058594 0.421875 9.058594 0.101562 L 9.058594 -5.179688 C 9 -6.839844 10.058594 -8.820312 11.660156 -8.917969 C 12.28125 -8.941406 12.898438 -8.640625 13.21875 -8.058594 C 13.621094 -7.28125 13.679688 -6.359375 13.699219 -5.5 L 13.699219 0.101562 C 13.699219 0.441406 14.058594 0.539062 14.300781 0.539062 C 14.558594 0.539062 14.941406 0.441406 14.941406 0.101562 L 14.941406 -5.761719 C 14.941406 -6.878906 14.78125 -8.039062 14.160156 -8.980469 C 13.660156 -9.761719 12.820312 -10.101562 11.960938 -10.078125 C 10.558594 -10.078125 9.261719 -8.941406 8.839844 -7.441406 C 8.679688 -8.21875 8.378906 -9 7.800781 -9.5 C 7.300781 -9.917969 6.699219 -10.078125 6.078125 -10.078125 C 4.738281 -10.078125 3.679688 -9 3.140625 -7.71875 L 3.140625 -9.480469 C 3.140625 -9.800781 2.800781 -9.917969 2.558594 -9.917969 C 2.320312 -9.917969 1.921875 -9.820312 1.921875 -9.480469 Z M 1.921875 0.101562 "/></g></g></g><g fill="#274352" fill-opacity="1"><g transform="translate(260.609608, 285.35978)"><g/></g></g></svg>