<svg xmlns="http://www.w3.org/2000/svg" xmlns:xlink="http://www.w3.org/1999/xlink" width="500" zoomAndPan="magnify" viewBox="0 0 375 374.999991" height="500" preserveAspectRatio="xMidYMid meet" version="1.0"><defs><g/><clipPath id="id1"><path d="M 17.65625 114.257812 L 151.808594 114.257812 L 151.808594 248.410156 L 17.65625 248.410156 Z M 17.65625 114.257812 " clip-rule="nonzero"/></clipPath></defs><rect x="-37.5" width="450" fill="#ffffff" y="-37.499999" height="449.999989" fill-opacity="1"/><rect x="-37.5" width="450" fill="#ffffff" y="-37.499999" height="449.999989" fill-opacity="1"/><rect x="-37.5" width="450" fill="#ffffff" y="-37.499999" height="449.999989" fill-opacity="1"/><rect x="-37.5" width="450" fill="#ffffff" y="-37.499999" height="449.999989" fill-opacity="1"/><g clip-path="url(#id1)"><path fill="#ff914d" d="M 84.726562 114.257812 C 47.683594 114.257812 17.65625 144.285156 17.65625 181.328125 C 17.65625 218.371094 47.683594 248.398438 84.726562 248.398438 L 151.796875 248.398438 L 151.796875 181.328125 C 151.808594 144.285156 121.769531 114.257812 84.726562 114.257812 Z M 84.726562 114.257812 " fill-opacity="1" fill-rule="nonzero"/></g><g fill="#ff914d" fill-opacity="1"><g transform="translate(166.684198, 172.375297)"><g><path d="M 32.859375 -11.875 L 9.484375 -11.875 C 9.921875 -10.0625 10.882812 -8.617188 12.375 -7.546875 C 13.863281 -6.472656 15.679688 -5.9375 17.828125 -5.9375 C 19.316406 -5.9375 20.554688 -6.160156 21.546875 -6.609375 C 22.546875 -7.066406 23.519531 -7.84375 24.46875 -8.9375 L 32.375 -8.9375 C 31.9375 -7.59375 31.132812 -6.191406 29.96875 -4.734375 C 26.8125 -1.109375 22.816406 0.703125 17.984375 0.703125 C 13.367188 0.703125 9.488281 -0.800781 6.34375 -3.8125 C 3.207031 -6.832031 1.640625 -10.554688 1.640625 -14.984375 C 1.640625 -19.421875 3.179688 -23.179688 6.265625 -26.265625 C 9.359375 -29.359375 13.117188 -30.90625 17.546875 -30.90625 C 22.054688 -30.90625 25.78125 -29.367188 28.71875 -26.296875 C 31.664062 -23.222656 33.140625 -19.34375 33.140625 -14.65625 C 33.140625 -13.675781 33.046875 -12.75 32.859375 -11.875 Z M 9.265625 -18.265625 L 26 -18.265625 C 25.519531 -20.179688 24.5625 -21.65625 23.125 -22.6875 C 21.695312 -23.726562 19.875 -24.25 17.65625 -24.25 C 13.257812 -24.25 10.460938 -22.253906 9.265625 -18.265625 Z M 9.265625 -18.265625 "/></g></g></g><g fill="#ff914d" fill-opacity="1"><g transform="translate(204.534309, 172.375297)"><g><path d="M 33.515625 -30.1875 L 33.515625 0 L 26.875 0 L 26.875 -3.921875 C 25.414062 -2.285156 23.90625 -1.101562 22.34375 -0.375 C 20.78125 0.34375 18.945312 0.703125 16.84375 0.703125 C 12.445312 0.703125 8.8125 -0.773438 5.9375 -3.734375 C 3.070312 -6.691406 1.640625 -10.441406 1.640625 -14.984375 C 1.640625 -19.597656 3.082031 -23.40625 5.96875 -26.40625 C 8.851562 -29.40625 12.53125 -30.90625 17 -30.90625 C 21.175781 -30.90625 24.46875 -29.320312 26.875 -26.15625 L 26.875 -30.1875 Z M 24.140625 -21.625 C 22.472656 -23.375 20.347656 -24.25 17.765625 -24.25 C 15.179688 -24.25 13.0625 -23.367188 11.40625 -21.609375 C 9.757812 -19.847656 8.9375 -17.585938 8.9375 -14.828125 C 8.9375 -12.171875 9.757812 -10.023438 11.40625 -8.390625 C 13.0625 -6.753906 15.21875 -5.9375 17.875 -5.9375 C 20.75 -5.9375 22.945312 -6.847656 24.46875 -8.671875 C 25.925781 -10.378906 26.65625 -12.445312 26.65625 -14.875 C 26.65625 -17.632812 25.816406 -19.882812 24.140625 -21.625 Z M 24.140625 -21.625 "/></g></g></g><g fill="#ff914d" fill-opacity="1"><g transform="translate(243.474404, 172.375297)"><g><path d="M 2.9375 0 L 2.9375 -40.28125 L 10.1875 -40.28125 L 10.1875 0 Z M 2.9375 0 "/></g></g></g><g fill="#ff914d" fill-opacity="1"><g transform="translate(259.525003, 172.375297)"><g><path d="M 2.9375 0 L 2.9375 -30.1875 L 10.1875 -30.1875 L 10.1875 0 Z M 2.9375 -33.46875 L 2.9375 -40.28125 L 10.1875 -40.28125 L 10.1875 -33.46875 Z M 2.9375 -33.46875 "/></g></g></g><g fill="#ff914d" fill-opacity="1"><g transform="translate(275.575607, 172.375297)"><g><path d="M 1.03125 -9.59375 L 8.34375 -9.59375 C 8.707031 -8.320312 9.207031 -7.394531 9.84375 -6.8125 C 10.476562 -6.226562 11.320312 -5.9375 12.375 -5.9375 C 13.3125 -5.9375 14.085938 -6.21875 14.703125 -6.78125 C 15.328125 -7.34375 15.640625 -8.046875 15.640625 -8.890625 C 15.640625 -9.867188 15.1875 -10.648438 14.28125 -11.234375 C 13.695312 -11.585938 12.441406 -12.09375 10.515625 -12.75 C 7.503906 -13.769531 5.351562 -14.957031 4.0625 -16.3125 C 2.769531 -17.675781 2.125 -19.46875 2.125 -21.6875 C 2.125 -24.269531 3.09375 -26.453125 5.03125 -28.234375 C 6.976562 -30.015625 9.351562 -30.90625 12.15625 -30.90625 C 15.3125 -30.90625 17.890625 -29.796875 19.890625 -27.578125 C 21.234375 -26.085938 21.960938 -24.179688 22.078125 -21.859375 L 14.984375 -21.859375 C 14.660156 -23.453125 13.71875 -24.25 12.15625 -24.25 C 11.351562 -24.25 10.6875 -24.003906 10.15625 -23.515625 C 9.632812 -23.023438 9.375 -22.414062 9.375 -21.6875 C 9.375 -20.78125 9.863281 -20.109375 10.84375 -19.671875 C 11.3125 -19.453125 12.53125 -19.035156 14.5 -18.421875 C 17.1875 -17.585938 19.039062 -16.734375 20.0625 -15.859375 C 21.945312 -14.367188 22.890625 -12.28125 22.890625 -9.59375 C 22.890625 -6.71875 21.84375 -4.28125 19.75 -2.28125 C 17.664062 -0.289062 15.113281 0.703125 12.09375 0.703125 C 10.28125 0.703125 8.566406 0.332031 6.953125 -0.40625 C 5.335938 -1.15625 4.035156 -2.179688 3.046875 -3.484375 C 1.992188 -4.898438 1.320312 -6.9375 1.03125 -9.59375 Z M 1.03125 -9.59375 "/></g></g></g><g fill="#ff914d" fill-opacity="1"><g transform="translate(302.525956, 172.375297)"><g><path d="M 2.9375 0 L 2.9375 -30.1875 L 9.59375 -30.1875 L 9.59375 -27.359375 C 10.644531 -28.628906 11.769531 -29.535156 12.96875 -30.078125 C 14.164062 -30.628906 15.65625 -30.90625 17.4375 -30.90625 C 21.394531 -30.90625 24.359375 -29.34375 26.328125 -26.21875 C 28.679688 -29.34375 31.914062 -30.90625 36.03125 -30.90625 C 38.3125 -30.90625 40.351562 -30.484375 42.15625 -29.640625 C 43.957031 -28.804688 45.328125 -27.628906 46.265625 -26.109375 C 47.578125 -24.035156 48.234375 -21.144531 48.234375 -17.4375 L 48.234375 0 L 40.984375 0 L 40.984375 -16.5625 C 40.984375 -19.394531 40.53125 -21.34375 39.625 -22.40625 C 38.601562 -23.632812 37.164062 -24.25 35.3125 -24.25 C 32.914062 -24.25 31.226562 -23.285156 30.25 -21.359375 C 29.5625 -20.085938 29.21875 -17.925781 29.21875 -14.875 L 29.21875 0 L 21.96875 0 L 21.96875 -16.5625 C 21.96875 -19.320312 21.546875 -21.25 20.703125 -22.34375 C 19.648438 -23.613281 18.109375 -24.25 16.078125 -24.25 C 13.566406 -24.25 11.859375 -23.210938 10.953125 -21.140625 C 10.441406 -19.835938 10.1875 -17.75 10.1875 -14.875 L 10.1875 0 Z M 2.9375 0 "/></g></g></g><g fill="#ff914d" fill-opacity="1"><g transform="translate(166.684198, 230.121371)"><g><path d="M 29.8125 -30.1875 L 29.8125 0 L 23.109375 0 L 23.109375 -2.890625 C 21.765625 -1.546875 20.4375 -0.609375 19.125 -0.078125 C 17.820312 0.441406 16.257812 0.703125 14.4375 0.703125 C 10.375 0.703125 7.304688 -0.785156 5.234375 -3.765625 C 4.398438 -5.035156 3.804688 -6.421875 3.453125 -7.921875 C 3.109375 -9.429688 2.9375 -11.457031 2.9375 -14 L 2.9375 -30.1875 L 10.1875 -30.1875 L 10.1875 -15.421875 C 10.1875 -11.609375 10.675781 -9.082031 11.65625 -7.84375 C 12.601562 -6.570312 14.023438 -5.9375 15.921875 -5.9375 C 18.492188 -5.9375 20.328125 -6.863281 21.421875 -8.71875 C 22.179688 -9.882812 22.5625 -12.300781 22.5625 -15.96875 L 22.5625 -30.1875 Z M 29.8125 -30.1875 "/></g></g></g><g fill="#ff914d" fill-opacity="1"><g transform="translate(202.35436, 230.121371)"><g><path d="M 1.03125 -9.59375 L 8.34375 -9.59375 C 8.707031 -8.320312 9.207031 -7.394531 9.84375 -6.8125 C 10.476562 -6.226562 11.320312 -5.9375 12.375 -5.9375 C 13.3125 -5.9375 14.085938 -6.21875 14.703125 -6.78125 C 15.328125 -7.34375 15.640625 -8.046875 15.640625 -8.890625 C 15.640625 -9.867188 15.1875 -10.648438 14.28125 -11.234375 C 13.695312 -11.585938 12.441406 -12.09375 10.515625 -12.75 C 7.503906 -13.769531 5.351562 -14.957031 4.0625 -16.3125 C 2.769531 -17.675781 2.125 -19.46875 2.125 -21.6875 C 2.125 -24.269531 3.09375 -26.453125 5.03125 -28.234375 C 6.976562 -30.015625 9.351562 -30.90625 12.15625 -30.90625 C 15.3125 -30.90625 17.890625 -29.796875 19.890625 -27.578125 C 21.234375 -26.085938 21.960938 -24.179688 22.078125 -21.859375 L 14.984375 -21.859375 C 14.660156 -23.453125 13.71875 -24.25 12.15625 -24.25 C 11.351562 -24.25 10.6875 -24.003906 10.15625 -23.515625 C 9.632812 -23.023438 9.375 -22.414062 9.375 -21.6875 C 9.375 -20.78125 9.863281 -20.109375 10.84375 -19.671875 C 11.3125 -19.453125 12.53125 -19.035156 14.5 -18.421875 C 17.1875 -17.585938 19.039062 -16.734375 20.0625 -15.859375 C 21.945312 -14.367188 22.890625 -12.28125 22.890625 -9.59375 C 22.890625 -6.71875 21.84375 -4.28125 19.75 -2.28125 C 17.664062 -0.289062 15.113281 0.703125 12.09375 0.703125 C 10.28125 0.703125 8.566406 0.332031 6.953125 -0.40625 C 5.335938 -1.15625 4.035156 -2.179688 3.046875 -3.484375 C 1.992188 -4.898438 1.320312 -6.9375 1.03125 -9.59375 Z M 1.03125 -9.59375 "/></g></g></g><g fill="#ff914d" fill-opacity="1"><g transform="translate(229.304706, 230.121371)"><g><path d="M 4.03125 0 L 4.03125 -23.59375 L 0.484375 -23.59375 L 0.484375 -30.1875 L 4.03125 -30.1875 L 4.03125 -40.28125 L 11.28125 -40.28125 L 11.28125 -30.1875 L 15.640625 -30.1875 L 15.640625 -23.59375 L 11.28125 -23.59375 L 11.28125 0 Z M 4.03125 0 "/></g></g></g><g fill="#ff914d" fill-opacity="1"><g transform="translate(248.625218, 230.121371)"><g/></g></g><g fill="#ff914d" fill-opacity="1"><g transform="translate(276.175067, 230.121371)"><g><path d="M 22.890625 -40.984375 C 28.628906 -40.984375 33.515625 -38.945312 37.546875 -34.875 C 41.578125 -30.8125 43.59375 -25.910156 43.59375 -20.171875 C 43.59375 -14.285156 41.59375 -9.332031 37.59375 -5.3125 C 33.601562 -1.300781 28.6875 0.703125 22.84375 0.703125 C 16.914062 0.703125 11.898438 -1.3125 7.796875 -5.34375 C 3.691406 -9.375 1.640625 -14.296875 1.640625 -20.109375 C 1.640625 -25.992188 3.679688 -30.941406 7.765625 -34.953125 C 11.847656 -38.972656 16.890625 -40.984375 22.890625 -40.984375 Z M 22.78125 -33.796875 C 18.894531 -33.796875 15.648438 -32.484375 13.046875 -29.859375 C 10.453125 -27.242188 9.15625 -23.992188 9.15625 -20.109375 C 9.15625 -16.296875 10.472656 -13.070312 13.109375 -10.4375 C 15.742188 -7.800781 18.96875 -6.484375 22.78125 -6.484375 C 26.59375 -6.484375 29.757812 -7.769531 32.28125 -10.34375 C 34.8125 -12.925781 36.078125 -16.164062 36.078125 -20.0625 C 36.078125 -23.90625 34.796875 -27.15625 32.234375 -29.8125 C 29.671875 -32.46875 26.519531 -33.796875 22.78125 -33.796875 Z M 22.78125 -33.796875 "/></g></g></g><g fill="#ff914d" fill-opacity="1"><g transform="translate(324.924945, 230.121371)"><g><path d="M 0.765625 -11.5 L 8.5625 -11.5 C 8.882812 -8.15625 10.695312 -6.484375 14 -6.484375 C 15.601562 -6.484375 16.910156 -6.9375 17.921875 -7.84375 C 18.941406 -8.75 19.453125 -9.929688 19.453125 -11.390625 C 19.453125 -13.097656 18.835938 -14.460938 17.609375 -15.484375 C 16.691406 -16.171875 14.363281 -17.203125 10.625 -18.578125 C 7.9375 -19.597656 5.863281 -21.039062 4.40625 -22.90625 C 2.957031 -24.78125 2.234375 -26.992188 2.234375 -29.546875 C 2.234375 -32.734375 3.378906 -35.4375 5.671875 -37.65625 C 7.960938 -39.875 10.722656 -40.984375 13.953125 -40.984375 C 17.953125 -40.984375 21.09375 -39.546875 23.375 -36.671875 C 24.90625 -34.828125 25.742188 -32.453125 25.890625 -29.546875 L 18.15625 -29.546875 C 18.039062 -30.921875 17.617188 -31.972656 16.890625 -32.703125 C 16.171875 -33.429688 15.171875 -33.796875 13.890625 -33.796875 C 12.660156 -33.796875 11.660156 -33.410156 10.890625 -32.640625 C 10.128906 -31.878906 9.75 -30.898438 9.75 -29.703125 C 9.75 -28.210938 10.492188 -26.992188 11.984375 -26.046875 C 12.390625 -25.796875 13.878906 -25.195312 16.453125 -24.25 C 19.691406 -23.050781 21.960938 -21.832031 23.265625 -20.59375 C 25.671875 -18.382812 26.875 -15.585938 26.875 -12.203125 C 26.875 -8.578125 25.632812 -5.519531 23.15625 -3.03125 C 20.6875 -0.539062 17.632812 0.703125 14 0.703125 C 11.863281 0.703125 9.859375 0.273438 7.984375 -0.578125 C 6.109375 -1.429688 4.570312 -2.640625 3.375 -4.203125 C 1.882812 -6.117188 1.015625 -8.550781 0.765625 -11.5 Z M 0.765625 -11.5 "/></g></g></g><g fill="#ffffff" fill-opacity="1"><g transform="translate(56.121896, 215.783997)"><g><path d="M 4.734375 -65.03125 L 27.984375 -65.03125 C 34.234375 -65.03125 39.328125 -63.359375 43.265625 -60.015625 C 47.210938 -56.679688 49.1875 -51.914062 49.1875 -45.71875 C 49.1875 -40.9375 47.988281 -36.925781 45.59375 -33.6875 C 43.207031 -30.457031 39.960938 -28.1875 35.859375 -26.875 L 58.25 0 L 39.40625 0 L 19.546875 -25.703125 L 19.546875 0 L 4.734375 0 Z M 19.546875 -36.1875 L 21.28125 -36.1875 C 22.644531 -36.1875 23.800781 -36.210938 24.75 -36.265625 C 25.695312 -36.316406 26.773438 -36.5 27.984375 -36.8125 C 29.191406 -37.125 30.160156 -37.566406 30.890625 -38.140625 C 31.628906 -38.722656 32.257812 -39.566406 32.78125 -40.671875 C 33.3125 -41.773438 33.578125 -43.113281 33.578125 -44.6875 C 33.578125 -46.269531 33.3125 -47.613281 32.78125 -48.71875 C 32.257812 -49.820312 31.628906 -50.660156 30.890625 -51.234375 C 30.160156 -51.816406 29.191406 -52.265625 27.984375 -52.578125 C 26.773438 -52.890625 25.695312 -53.070312 24.75 -53.125 C 23.800781 -53.175781 22.644531 -53.203125 21.28125 -53.203125 L 19.546875 -53.203125 Z M 19.546875 -36.1875 "/></g></g></g></svg>